<?xml version="1.0" encoding="UTF-8"?>
<svg xmlns="http://www.w3.org/2000/svg" width="1920" height="1080" viewBox="0 0 1920 1080">
  <defs>
    <radialGradient id="bg" cx="50%" cy="46%" r="80%">
      <stop offset="0%" stop-color="#16291e"/><stop offset="58%" stop-color="#0a1a12"/><stop offset="100%" stop-color="#02090b"/>
    </radialGradient>
    <linearGradient id="title" x1="0" y1="0" x2="0" y2="1">
      <stop offset="0%" stop-color="#ffffff"/><stop offset="100%" stop-color="#b9d6c4"/>
    </linearGradient>
    <radialGradient id="p1" cx="35%" cy="28%" r="70%">
      <stop offset="0%" stop-color="#9af0b8"/><stop offset="55%" stop-color="#62cf90"/><stop offset="100%" stop-color="#0d4a23"/>
    </radialGradient>
    <radialGradient id="p2" cx="35%" cy="28%" r="70%">
      <stop offset="0%" stop-color="#ffffff"/><stop offset="55%" stop-color="#f0fbcf"/><stop offset="100%" stop-color="#92a872"/>
    </radialGradient>
    <radialGradient id="empty" cx="36%" cy="30%" r="72%">
      <stop offset="0%" stop-color="#33473b"/><stop offset="100%" stop-color="#0c1812"/>
    </radialGradient>
    <filter id="glow" x="-60%" y="-60%" width="220%" height="220%">
      <feGaussianBlur stdDeviation="7"/><feMerge><feMergeNode/><feMergeNode in="SourceGraphic"/></feMerge>
    </filter>
    <filter id="ds" x="-40%" y="-40%" width="180%" height="180%">
      <feGaussianBlur in="SourceAlpha" stdDeviation="6"/><feOffset dx="0" dy="6"/>
      <feComponentTransfer><feFuncA type="linear" slope="0.45"/></feComponentTransfer>
      <feMerge><feMergeNode/><feMergeNode in="SourceGraphic"/></feMerge>
    </filter>
    <radialGradient id="cvig" cx="50%" cy="50%" r="50%">
      <stop offset="0%" stop-color="#02090b" stop-opacity="0.78"/>
      <stop offset="60%" stop-color="#02090b" stop-opacity="0.45"/>
      <stop offset="100%" stop-color="#02090b" stop-opacity="0"/>
    </radialGradient>
  </defs>
  <rect width="1920" height="1080" fill="url(#bg)"/>
  <g filter="url(#ds)">
    <circle cx="435.0" cy="85.3" r="24.599999999999998" fill="url(#empty)"/>
    <circle cx="585.0" cy="85.3" r="30" fill="url(#p1)"/>
    <ellipse cx="576.0" cy="73.9" rx="12.6" ry="7.8" fill="#ffffff" opacity="0.5"/>
    <circle cx="735.0" cy="85.3" r="24.599999999999998" fill="url(#empty)"/>
    <circle cx="885.0" cy="85.3" r="24.599999999999998" fill="url(#empty)"/>
    <circle cx="1035.0" cy="85.3" r="24.599999999999998" fill="url(#empty)"/>
    <circle cx="1185.0" cy="85.3" r="30" fill="url(#p2)"/>
    <ellipse cx="1176.0" cy="73.9" rx="12.6" ry="7.8" fill="#ffffff" opacity="0.75"/>
    <circle cx="1335.0" cy="85.3" r="24.599999999999998" fill="url(#empty)"/>
    <circle cx="1485.0" cy="85.3" r="30" fill="url(#p2)"/>
    <ellipse cx="1476.0" cy="73.9" rx="12.6" ry="7.8" fill="#ffffff" opacity="0.75"/>
    <circle cx="510.0" cy="215.2" r="30" fill="url(#p1)"/>
    <ellipse cx="501.0" cy="203.8" rx="12.6" ry="7.8" fill="#ffffff" opacity="0.5"/>
    <circle cx="660.0" cy="215.2" r="30" fill="url(#p1)"/>
    <ellipse cx="651.0" cy="203.8" rx="12.6" ry="7.8" fill="#ffffff" opacity="0.5"/>
    <circle cx="810.0" cy="215.2" r="30" fill="url(#p1)"/>
    <ellipse cx="801.0" cy="203.8" rx="12.6" ry="7.8" fill="#ffffff" opacity="0.5"/>
    <circle cx="960.0" cy="215.2" r="30" fill="url(#p1)"/>
    <ellipse cx="951.0" cy="203.8" rx="12.6" ry="7.8" fill="#ffffff" opacity="0.5"/>
    <circle cx="1110.0" cy="215.2" r="30" fill="url(#p1)"/>
    <ellipse cx="1101.0" cy="203.8" rx="12.6" ry="7.8" fill="#ffffff" opacity="0.5"/>
    <circle cx="1260.0" cy="215.2" r="30" fill="url(#p1)"/>
    <ellipse cx="1251.0" cy="203.8" rx="12.6" ry="7.8" fill="#ffffff" opacity="0.5"/>
    <circle cx="1410.0" cy="215.2" r="30" fill="url(#p1)"/>
    <ellipse cx="1401.0" cy="203.8" rx="12.6" ry="7.8" fill="#ffffff" opacity="0.5"/>
    <circle cx="585.0" cy="345.1" r="24.599999999999998" fill="url(#empty)"/>
    <circle cx="735.0" cy="345.1" r="24.599999999999998" fill="url(#empty)"/>
    <circle cx="885.0" cy="345.1" r="24.599999999999998" fill="url(#empty)"/>
    <circle cx="1035.0" cy="345.1" r="24.599999999999998" fill="url(#empty)"/>
    <circle cx="1185.0" cy="345.1" r="24.599999999999998" fill="url(#empty)"/>
    <circle cx="1335.0" cy="345.1" r="30" fill="url(#p2)"/>
    <ellipse cx="1326.0" cy="333.7" rx="12.6" ry="7.8" fill="#ffffff" opacity="0.75"/>
    <circle cx="660.0" cy="475.0" r="24.599999999999998" fill="url(#empty)"/>
    <circle cx="810.0" cy="475.0" r="24.599999999999998" fill="url(#empty)"/>
    <circle cx="960.0" cy="475.0" r="24.599999999999998" fill="url(#empty)"/>
    <circle cx="1110.0" cy="475.0" r="24.599999999999998" fill="url(#empty)"/>
    <circle cx="1260.0" cy="475.0" r="24.599999999999998" fill="url(#empty)"/>
    <circle cx="735.0" cy="605.0" r="30" fill="url(#p1)"/>
    <ellipse cx="726.0" cy="593.6" rx="12.6" ry="7.8" fill="#ffffff" opacity="0.5"/>
    <circle cx="885.0" cy="605.0" r="24.599999999999998" fill="url(#empty)"/>
    <circle cx="1035.0" cy="605.0" r="24.599999999999998" fill="url(#empty)"/>
    <circle cx="1185.0" cy="605.0" r="24.599999999999998" fill="url(#empty)"/>
    <circle cx="810.0" cy="734.9" r="30" fill="url(#p1)"/>
    <ellipse cx="801.0" cy="723.5" rx="12.6" ry="7.8" fill="#ffffff" opacity="0.5"/>
    <circle cx="960.0" cy="734.9" r="24.599999999999998" fill="url(#empty)"/>
    <circle cx="1110.0" cy="734.9" r="24.599999999999998" fill="url(#empty)"/>
    <circle cx="885.0" cy="864.8" r="30" fill="url(#p1)"/>
    <ellipse cx="876.0" cy="853.4" rx="12.6" ry="7.8" fill="#ffffff" opacity="0.5"/>
    <circle cx="1035.0" cy="864.8" r="24.599999999999998" fill="url(#empty)"/>
    <circle cx="960.0" cy="994.7" r="30" fill="url(#p1)"/>
    <ellipse cx="951.0" cy="983.3" rx="12.6" ry="7.8" fill="#ffffff" opacity="0.5"/>
    <line x1="460.0" y1="215.2" x2="1460.0" y2="215.2" stroke="#2b8a4c" stroke-width="13" stroke-linecap="round"/>
    <line x1="460.0" y1="215.2" x2="1460.0" y2="215.2" stroke="#b8f5d3" stroke-width="5" stroke-linecap="round" style="mix-blend-mode:screen"/>
    <line x1="710.0" y1="561.7" x2="985.0" y2="1038.0" stroke="#2b8a4c" stroke-width="13" stroke-linecap="round"/>
    <line x1="710.0" y1="561.7" x2="985.0" y2="1038.0" stroke="#b8f5d3" stroke-width="5" stroke-linecap="round" style="mix-blend-mode:screen"/>
    <line x1="1510.0" y1="42.0" x2="1310.0" y2="388.4" stroke="#c8c878" stroke-width="13" stroke-linecap="round"/>
    <line x1="1510.0" y1="42.0" x2="1310.0" y2="388.4" stroke="#ffffff" stroke-width="5" stroke-linecap="round" style="mix-blend-mode:screen"/>
  </g>
  <ellipse cx="960" cy="540" rx="560" ry="320" fill="url(#cvig)"/>
</svg>